PathFileType	4	(X/Y/Z)	C:\Users\°ÂÌØÂü\Desktop\20210112\bx_n_5_501-Unnamed.trc
DataRate	CameraRate	NumFrames	NumMarkers	Units	OrigDataRate	OrigDataStartFrame	OrigNumFrames
50.00	50.00	       7	0	mm	50.00	1	       517
Frame#	Time	
		

1	0.000	-671.79205	122.10929	1849.11230	-719.68634	291.54068	1527.39270	-571.03021	0.91553	802.57727	-577.43390	228.40324	792.21991	-683.49640	273.73090	742.98444				-715.90094	253.81720	642.76208	-666.29614	208.46423	533.97467	-761.33667	259.23737	502.96616	-517.32672	-72.98653	143.58786	-547.35297	-26.34856	164.08612	-793.05096	40.77515	175.88123	-718.30023	72.71228	215.45126	-598.82520	28.25327	166.61316	-674.14716	54.96411	157.32707	-712.34485	153.38777	216.33492	-795.93561	178.24176	184.47926	-767.52094	227.13966	205.76920	-591.87122	217.57790	173.87048	-882.53021	296.19693	144.72672	-555.75757	256.08795	164.43889	-660.42242	297.57083	158.30324	-623.88513	305.89059	159.34091	-528.12360	304.36343	146.55630	-678.77716	-68.25909	1535.99670	-784.42566	98.47067	1052.66858	-750.39355	-42.65387	489.65793	-757.46759	-17.98896	208.20313	-875.99792	-78.69180	141.55168	-643.69592	-66.96532	870.83008	-694.63593	-31.34440	615.20447	-705.33441	-29.49291	568.95154	-675.31519	171.09966	157.99986	-606.34009	-71.53247	159.24976	-648.73041	-65.55271	163.36310	-666.72748	-58.23935	756.62097	-591.06689	112.10809	1356.72803	-580.08026	1.06820	1055.11768	-591.74316	249.48132	1065.51306	-673.73499	289.46704	871.60883	-680.69415	146.92268	576.80524	-658.61328	20.30613	517.74268	-719.28735	249.47008	575.96362	-685.58801	78.51001	572.04126	
2	0.020	-672.18585	122.26909	1849.04956	-719.59387	291.60605	1527.31885	-571.01105	0.75261	802.46350	-577.50702	228.50323	792.23444	-683.49640	273.73090	742.98444				-715.91034	253.62923	642.62781	-666.29614	208.46423	533.97467	-761.29608	259.32123	503.07803	-517.08795	-72.98282	143.73065	-547.40295	-26.33154	164.01295	-793.03223	40.81606	175.93855	-718.13184	72.61729	215.53833	-599.04858	28.43000	166.49583	-674.51434	55.11081	157.11691	-712.24469	153.32512	216.27792	-795.94934	178.38249	184.55060	-767.47937	227.08055	205.76012	-591.74622	217.56487	174.01891	-882.36230	296.08911	144.76138	-555.82971	256.13675	164.50844	-660.33325	297.51645	158.31007	-623.89227	306.00113	159.18040	-528.09119	304.41696	146.83089	-678.83112	-68.21340	1536.08374	-784.23077	98.44586	1052.63049	-750.26917	-42.73384	489.84735	-757.44745	-17.59275	208.13376	-875.87335	-78.57735	141.34627	-643.95142	-67.36607	871.05292	-694.59509	-31.45683	614.95398	-705.38470	-29.37246	568.90582	-675.42920	171.33635	157.76367	-606.17639	-71.27381	159.25685	-648.61633	-65.58897	163.50909	-666.72723	-58.28343	756.56805	-591.26685	111.83814	1356.56812	-580.13391	1.11528	1055.19373	-591.65393	249.66833	1065.67627	-673.73499	289.46704	871.60883	-680.69415	146.92268	576.80524	-658.61328	20.30613	517.74268	-719.30615	249.45645	575.89520	-685.58801	78.51001	572.04126	
3	0.040	-672.50665	122.41038	1849.15527	-719.71930	291.59131	1527.26917	-570.88129	0.70968	802.58484	-577.23639	228.42818	792.30829	-683.38678	273.47675	742.64172				-715.93695	253.68481	642.73041	-666.29614	208.46423	533.97467	-761.24176	259.26364	503.04184	-517.16052	-72.96725	143.62186	-547.30969	-26.23952	164.15706	-793.03223	40.81606	175.93855	-718.13232	72.69743	215.49449	-598.87817	28.23094	166.59814	-674.14716	54.96411	157.32707	-712.14166	153.27031	216.15656	-795.90045	178.35350	184.42593	-767.52094	227.13966	205.76920	-591.86383	217.54462	173.85439	-882.49231	296.34213	144.90112	-555.66034	256.08859	164.48219	-660.40265	297.65268	158.20157	-623.95764	305.98181	159.30353	-527.99908	304.58014	146.82976	-678.90875	-68.22874	1536.02600	-784.45380	98.52402	1052.73291	-750.23981	-42.72374	489.91711	-757.40894	-17.59655	208.19688	-875.99792	-78.69180	141.55168	-643.82385	-67.02939	870.82483	-694.65033	-31.42356	615.12085	-705.34467	-29.20068	568.84186	-675.17737	171.02795	158.33615	-606.12598	-71.25449	159.35260	-648.49347	-65.60434	163.43822	-666.65814	-58.32213	756.63062	-591.27972	111.91285	1356.68115	-580.13391	1.11528	1055.19373	-591.62744	249.62570	1065.50854	-673.36713	289.83463	871.96613	-680.69415	146.92268	576.80524	-658.42017	20.38203	517.80896	-719.28735	249.47008	575.96362	-685.58801	78.51001	572.04126	
4	0.060	-672.83374	122.34508	1849.15527	-719.84686	291.54544	1527.30005	-570.99445	0.80904	802.50732	-577.24426	228.31644	792.38196	-683.22852	273.58783	742.56006				-715.76514	253.67609	642.52740	-666.15283	208.41565	534.01331	-761.24176	259.26364	503.04184	-517.16052	-72.96725	143.62186	-547.30933	-26.29962	164.09613	-793.07849	40.79868	175.89160	-718.30023	72.71228	215.45126	-598.87915	28.04182	166.60689	-674.32098	55.14336	157.11520	-712.22247	153.43648	216.42084	-795.80402	178.38275	184.43475	-767.47980	227.05965	205.80853	-591.77814	217.60739	173.96495	-882.55920	296.25497	144.75124	-555.64313	256.00165	164.42184	-660.40265	297.65268	158.20157	-623.86755	305.95953	159.24239	-528.11536	304.45233	146.53067	-678.99237	-68.27821	1536.03430	-784.27875	98.52608	1052.72510	-750.23981	-42.72374	489.91711	-757.54443	-17.85549	208.22539	-875.99792	-78.69180	141.55168	-643.87762	-67.25027	870.86200	-694.48993	-31.53937	615.32648	-705.31586	-29.20563	568.78613	-675.42920	171.33635	157.76367	-606.12598	-71.25449	159.35260	-648.59113	-65.51024	163.34821	-666.53662	-58.26009	756.55829	-591.52997	111.71478	1356.51428	-580.25934	1.12515	1055.20508	-591.65393	249.66833	1065.67627	-673.36713	289.83463	871.96613	-680.72205	146.81354	576.71991	-658.31512	20.41758	517.79346	-719.18054	249.25774	575.76276	-685.58801	78.51001	572.04126	
5	0.080	-673.08862	122.56184	1849.05420	-719.75366	291.62015	1527.16748	-570.95624	0.74323	802.64160	-576.99475	228.24480	792.39105	-683.25372	273.36234	742.72626				-715.81934	253.62909	642.74475	-666.15283	208.41565	534.01331	-761.08923	259.25385	503.05594	-517.19196	-72.84203	143.47189	-547.30298	-26.24611	164.15665	-793.00909	40.79849	175.72884	-718.24719	72.78227	215.32565	-599.05450	28.39675	166.63998	-674.32776	55.16376	157.00081	-711.90448	153.46236	216.10867	-795.78375	178.47763	184.51431	-767.59399	227.13806	205.70604	-591.79779	217.66310	173.91438	-882.44165	296.28186	144.84575	-555.71936	256.12570	164.44225	-660.42242	297.57083	158.30324	-623.76843	305.95120	159.13367	-527.94897	304.68036	146.89655	-679.13800	-68.28138	1536.14990	-784.29352	98.38261	1052.59534	-750.20911	-42.74101	489.85080	-757.54266	-17.69833	208.10852	-875.99792	-78.69180	141.55168	-643.94525	-67.23840	870.85010	-694.43463	-31.57265	615.15961	-705.23663	-28.86818	568.62439	-675.42920	171.33635	157.76367	-606.12598	-71.25449	159.35260	-648.61633	-65.58897	163.50909	-666.53351	-58.30584	756.50800	-591.52997	111.71478	1356.51428	-580.13391	1.11528	1055.19373	-591.54358	249.71461	1065.75769	-673.40259	289.85080	872.16357	-680.69415	146.92268	576.80524	-658.20148	20.37013	517.99457	-718.84882	249.48740	576.02313	-685.58801	78.51001	572.04126	
6	0.100	-673.19580	122.56770	1848.96313	-719.76495	291.64627	1527.23730	-570.82324	0.87980	802.57092	-576.91174	228.16557	792.44635	-683.04010	273.77658	742.75189				-715.57983	253.62375	642.80701	-666.06268	208.33633	533.98114	-760.97717	259.30618	503.03723	-517.16052	-72.96725	143.62186	-547.39288	-26.23600	164.10951	-793.00171	40.76129	175.89464	-718.13232	72.69743	215.49449	-599.10236	28.55319	166.48409	-674.37793	55.02909	157.09862	-712.42963	153.32007	216.25259	-795.86249	178.46358	184.40286	-767.47351	227.17053	205.82864	-591.94873	217.77997	174.12578	-882.44165	296.28186	144.84575	-555.67633	255.79863	164.35338	-660.40265	297.65268	158.20157	-623.84033	305.96402	159.14188	-527.94897	304.68036	146.89655	-679.19586	-68.30993	1536.07678	-784.27875	98.52608	1052.72510	-750.19977	-42.61962	489.64661	-757.34094	-17.61025	208.02402	-875.99792	-78.69180	141.55168	-643.95142	-67.36607	871.05292	-694.65033	-31.42356	615.12085	-704.96143	-29.17934	568.73260	-675.42920	171.33635	157.76367	-606.11029	-71.36491	159.32687	-648.62317	-65.53162	163.55273	-666.43262	-58.37775	756.58069	-591.59949	111.59118	1356.46411	-580.25934	1.12515	1055.20508	-591.49445	249.57877	1065.51721	-673.32275	289.57437	871.75586	-680.53705	146.96680	576.67169	-658.13965	20.46805	518.12842	-718.95563	249.69969	576.22394	-685.36444	78.40097	571.94440	
7	0.120	-673.33289	122.58510	1848.96912	-719.95764	291.76672	1527.16077	-570.93823	0.73489	802.63940	-576.99023	228.33133	792.32672	-683.06531	273.55109	742.91809				-715.57983	253.62375	642.80701	-666.26935	208.22783	533.62238	-761.01178	259.28745	503.04404	-517.13794	-73.11299	143.72290	-547.30933	-26.29962	164.09613	-793.00171	40.76129	175.89464	-718.13184	72.61729	215.53833	-599.04858	28.43000	166.49583	-674.17780	54.91801	157.31862	-712.42963	153.32007	216.25259	-795.84662	178.33072	184.41707	-767.55243	227.07895	205.69696	-591.96069	217.74712	174.04193	-882.41229	296.21234	144.77406	-555.71368	256.15134	164.46790	-660.46008	297.77716	158.20309	-623.93390	306.12897	159.14368	-528.03589	304.71042	146.77905	-679.28040	-68.23962	1536.19617	-784.42566	98.47067	1052.66858	-750.08405	-42.72202	489.85532	-757.55280	-17.74070	208.27893	-875.95648	-78.79716	141.44162	-643.66199	-66.92287	870.98175	-694.43463	-31.57265	615.15961	-705.19116	-29.14695	568.85852	-675.31519	171.09966	157.99986	-606.29181	-71.37819	159.23256	-648.83252	-65.61145	163.48438	-666.53351	-58.30584	756.50800	-591.71167	111.63788	1356.44629	-579.98212	1.01391	1055.18103	-591.49445	249.57877	1065.51721	-673.05371	289.66510	871.87720	-680.69415	146.92268	576.80524	-657.97876	20.32329	518.01801	-718.93347	249.47044	575.91034	-685.36444	78.40097	571.94440	
